<?xml version="1.0" encoding="utf-8"?>
<!-- Generator: Adobe Illustrator 16.0.0, SVG Export Plug-In . SVG Version: 6.00 Build 0)  -->
<!DOCTYPE svg PUBLIC "-//W3C//DTD SVG 1.1//EN" "http://www.w3.org/Graphics/SVG/1.1/DTD/svg11.dtd">
<svg version="1.1" id="Layer_1" xmlns="http://www.w3.org/2000/svg" xmlns:xlink="http://www.w3.org/1999/xlink" x="0px" y="0px"
	 width="244.488px" height="244.488px" viewBox="0 0 244.488 244.488" enable-background="new 0 0 244.488 244.488"
	 xml:space="preserve">
<path stroke="#000000" stroke-width="0.9381" stroke-miterlimit="10" d="M122.067,233.401c-61.488,0-111.334-49.847-111.334-111.333
	c0-61.488,49.846-111.334,111.334-111.334h7.333v5.667h-7.333c-57.683,0-104.444,46.762-104.444,104.444
	c0,57.682,46.762,104.444,104.444,104.444l7.333-0.264v8.062L122.067,233.401z"/>
<path stroke="#000000" stroke-width="0.9381" stroke-miterlimit="10" d="M145.139,230.901
	c50.166-10.814,87.762-55.435,87.762-108.833c0-53.436-37.646-98.079-87.862-108.855l-0.102,5.812
	c46.431,10.614,81.074,52.172,81.074,101.82c0,49.482-34.413,90.931-80.613,101.712L145.139,230.901z"/>
<g>
	<polygon points="110.151,133.276 130.651,133.276 133.776,108.276 112.776,108.151 	"/>
	<path d="M121.877,25.903c-53.112,0-96.167,43.056-96.167,96.167s43.055,96.166,96.167,96.166c53.111,0,96.167-43.055,96.167-96.166
		S174.989,25.903,121.877,25.903z M184.735,108.234h-25.5l-2.667,24.833h22.5v21.667l-25.396,0.083l-2.604,31.583h-25.333
		l3.667-31.5h-21.667l-3.167,31.5H79.233l3.501-31.666H59.818v-20.583H85.4l2.084-26l-22.209,0.041l-0.042-20.791h24.5l3.5-30h24.5
		l-2.667,30h21.5l3.167-30h24.5l-2.5,30h23V108.234z"/>
</g>
</svg>
